<svg xmlns="http://www.w3.org/2000/svg" baseProfile="tiny" version="1.2" viewBox="0 0 500 500">
  <title>AQTAL</title>
  <path fill="#0D2635" d="M0 0h500v500H0V0Z"/>
  <path fill="#FDFDFD" d="M0 0h500v500H0V0Zm57 41-2 1c-7 6-12 14-14 23v6a4115336498 4115336498 0 0 1 0 26v13a16408 16408 0 0 0 0 100v16a28141 28141 0 0 1-1 196c0 13 3 23 12 33 7 7 16 13 27 13h7a28346 28346 0 0 0 20 0h58a78648 78648 0 0 0 60 0h3a34643 34643 0 0 1 185 1c14-1 25-4 34-13s13-19 13-31v-4a31656 31656 0 0 0 0-21v-13a28645 28645 0 0 0 0-106v-4a2921732912 2921732912 0 0 0 0-193c0-17-2-28-14-41-10-10-23-11-37-11a2465 2465 0 0 1-16 0h-13a9274 9274 0 0 0-45 0h-3a423470 423470 0 0 1-167 0h-3a13940 13940 0 0 1-75 0c-11 0-20 2-29 9Z"/>
  <path fill="#FDFDFD" d="m354 177 11 9v2h2v-17h35v204h-35l-1-83-8 8a68 68 0 0 1-50 11l-13-5-3-1c-14-8-23-20-29-34l-1-2c-7-17-7-40 0-57l1-3 1-3c7-16 21-28 37-34 18-6 36-4 53 5Z"/>
  <path fill="#FCFCFC" d="m170 171 2 1c10 3 17 9 24 16l1-17h36v139h-36l-1-18-3 4a58 58 0 0 1-39 16c-18 0-33-5-46-18a80 80 0 0 1-21-58c1-19 8-39 23-52 16-14 39-20 60-13Z"/>
  <path fill="#0E2736" d="M177 203c10 6 17 15 20 27 1 15 0 28-10 40-6 7-14 10-23 11-7 1-13 0-20-4l-3-2c-9-7-15-16-17-28-1-13 0-25 9-35 11-12 28-17 44-9Zm173 2c8 5 13 14 16 23 3 13 1 26-6 38-6 7-12 11-21 14l-3 1c-11 1-21-1-30-8-7-8-12-17-12-28-1-19-1-19 4-26l1-2c12-17 32-23 51-12Z"/>
  <path fill="#031929" d="M195 171h2v18l-9-9 6 4 1-13Z"/>
</svg>
